<svg version="1.2" xmlns="http://www.w3.org/2000/svg" viewBox="0 0 400 400" width="400" height="400"><style>.a{fill:#f49ac1}.b{fill:#fff}</style><path fill-rule="evenodd" class="a" d="m70 0h260c38.7 0 70 31.3 70 70v260c0 38.7-31.3 70-70 70h-260c-38.7 0-70-31.3-70-70v-260c0-38.7 31.3-70 70-70z"/><path class="b" d="m66.4 124.1v-0.3q0-0.1 0.2-0.1 0 0-0.2-0.3v-0.2q0-0.3-0.4-0.6-0.3-0.3-0.4-0.4-0.7-0.3-2.2-0.9-1.3-0.8-1.5-0.9-0.4-0.2-1.5-0.3-1-0.2-2.2-0.3-1.2-0.2-2.3-0.2-1-0.1-1.5-0.1l-0.8-0.9v-36.2h37.4v86.5h24.6q0.3 0.8 0.5 1.4 0.3 1.5 0.4 2v1 0.8q-0.1 0.3-0.9 1-0.7 0.6-1 0.9 0 0.2-0.5 0.9-0.4 0.6-0.9 1.4-0.4 0.7-0.9 1.5-0.3 0.6-0.4 0.7-0.3 0.6-1.8 2.1-1.4 1.3-1.9 1.7 0.2 0 1.1 0.1 0.9 0 1.2 0 0.3 0 1.2 0 0.9-0.1 1.1-0.1 0.1 0 0.7-0.8 0.8-0.7 1.1-1.1 0.6-0.5 1.6-1.9 1.1-1.5 1.2-1.8 0.2-0.1 0.5-1.2 0.3-1.1 0.4-1.5 0.2-0.4 0.3-1.3 0.3-0.9 0.6-2 0.3-1 0.6-1.9 0.3-0.9 0.3-1.4h21.3v30.6h-87.8v-74.1q0-0.1 0.7-0.4 0.8-0.3 1-0.5 0.6-0.1 2.1-0.3 1.7-0.2 3.5-0.3 1.8-0.1 3.3-0.1 1.6-0.2 2.2-0.2zm98.5 61.5h-14.3v-35.5q0-0.3 0.2-0.9 0.3-0.8 0.6-1.1 0-0.2 0.5-0.6 0.2-0.2 0.4-0.3 0.6-0.1 2.3-0.4 1.8-0.4 2.4-0.5v-0.9l-6.4-2v-46.6h14.3v-14.4h81v31.1h-57.8v10.6q-0.7-0.3-2.6-1.3-1.8-1.3-2.6-1.5h-0.8-1q-0.3 0-1.2 0.1-0.7 0.1-1.6 0.3-0.9 0.2-1.8 0.3-0.8 0.2-0.9 0.2-0.5 0.1-1.5 0.3-0.9 0.1-2 0.3-1 0.1-1.9 0.2-0.9 0.2-1.2 0.2h-0.4-0.5q-0.5 0-1.7-0.2-1.2-0.1-2.5-0.2-1.2-0.2-2.4-0.3-1.2-0.2-1.7-0.3l-0.9 1q0 0.2 0.3 0.5 0.4 0.3 0.6 0.4 0.3 0 1.7 0.4 1.3 0.4 1.9 0.5 0.5 0 1.2 0.2 1 0.1 1.8 0.3 0.9 0.1 1.7 0.3 0.7 0.1 0.9 0.1 0.7 0 2.7 0.1 2.1 0.2 4.2 0.4 2.2 0.1 4.2 0.3 2.1 0.1 2.8 0.1l5.2 4.6-0.1 37.5h57.9v31.1h-24.1q-0.2 0-0.9-0.3-0.6-0.3-0.9-0.6-0.3-0.3-1.1-0.9-0.6-0.8-0.7-1 0-0.5-0.1-1.4-0.2-1-0.4-2.2-0.1-1.3-0.3-2.3-0.1-1-0.3-1.5 0-0.3-0.3-1-0.2-0.8-0.6-0.8 0-0.2-0.4-0.2-0.3-0.1-0.6-0.1-0.1 0-0.5 0.1-0.3 0-0.3 0.2l-2.8 12h-46.7zm90.7-11.5q0.4 0 1.5-0.2 1-0.1 2-0.3 1.3-0.2 2.3-0.3 1-0.1 1.5-0.1 0.6-0.2 2.7-0.5 2.1-0.3 2.8-0.4 0.7-0.2 2.5-0.5 1.7-0.3 2.2-0.4l-17.5-2.1v-49.8q0-0.2 0.2-0.5 0.3-0.4 0.6-0.4 0.3-0.2 1.7-0.5 1.3-0.3 2.1-0.4 0.6-0.3 2.7-0.6 2.1-0.3 2.8-0.5 0.4 0 1.5 0 1.2-0.1 2.6-0.3 1.5-0.1 2.7-0.3 1.2-0.1 1.5-0.3 0.3 0 1.1-0.3 0.7-0.4 0.8-0.6 0.5-0.1 2.3-0.4 1.8-0.3 2.4-0.5v-0.9q0 0-0.6-0.1-0.6-0.2-1.5-0.3-0.9-0.2-1.9-0.3-1-0.2-1.5-0.2-1 0-3.2 0-2.3-0.1-4.8-0.1-2.4 0-4.7 0.1-2.2 0-3.1 0-0.3-0.1-1.1-0.4-0.6-0.3-0.8-0.6-0.2 0-0.5-0.3-0.3-0.5-0.5-0.6-0.3-0.3-0.6-0.9-0.2-0.8-0.2-0.9v-26h88.9v31.1h-50.1v12h23.2q0.3 0 1.4 1.3 1 1.2 1.4 2 0.1 0.4 0.4 1.5 0.3 0.9 0.6 2.1 0.3 1.2 0.5 2.2 0.2 1.1 0.2 1.5 0.2-0.4 0.5-1.5 0.4-1 0.9-2.2 0.4-1.2 0.7-2.3 0.5-1 0.8-1.3 0.3-0.8 1.4-1.8 1-1.1 1.3-1.1h16.8v31h-50.1v12h50.1v31.1h-15.8q-0.1 0-0.4-0.3-0.3-0.3-0.6-0.6-0.2-0.3-0.5-0.9-0.3-0.8-0.4-1 0-0.2-0.4-2.3-0.4-2.1-0.5-3.3 0-0.3-0.2-1.2-0.1-0.9-0.3-2-0.1-1-0.3-1.9-0.1-0.9-0.1-1.3-0.1 0.1-0.6 0.4-0.3 0.3-0.3 0.5-0.2 0.2-0.6 1.7-0.3 1.5-0.3 2-0.2 0.6-0.3 2.1-0.2 1.4-0.3 3-0.2 1.7-0.3 3.2-0.2 1.3-0.2 1.9h-36q-0.1 0-1.2-0.7-1-0.8-1.6-1.1 0-0.1-0.4-0.4-0.4-0.4-0.5-0.6-0.5-0.6-1.5-2-1-1.4-1.4-1.6-0.3-0.5-0.7-1.4-0.3-0.9-0.8-1.8-0.4-0.9-0.9-1.5-0.2-0.7-0.2-0.9-0.2-0.7-0.4-2.6-0.1-1.9-0.3-3.8-0.1-2.2-0.3-3.9 0-2 0-2.8-0.1 0.7-0.4 2.3-0.3 1.5-0.6 3.3-0.3 1.8-0.6 3.4-0.2 1.5-0.3 2.2v11.1l-2.7 2.8h-15.8z"/><path class="b" d="m65 251.2v-0.2q0-0.2 0.1-0.2 0 0-0.1-0.2v-0.2q0-0.2-0.4-0.5-0.3-0.2-0.4-0.4-0.5-0.2-1.8-0.7-1.2-0.7-1.3-0.8-0.4-0.2-1.3-0.3-0.9-0.1-2-0.2-1-0.2-1.9-0.2-0.9-0.1-1.3-0.1l-0.8-0.8v-31.3h32.5v75h21.3q0.3 0.6 0.4 1.2 0.3 1.3 0.4 1.7v0.9 0.6q-0.1 0.3-0.8 0.9-0.6 0.5-0.9 0.8 0 0.1-0.4 0.8-0.4 0.5-0.7 1.1-0.4 0.7-0.8 1.4-0.3 0.5-0.4 0.6-0.3 0.5-1.6 1.8-1.1 1.2-1.7 1.5 0.3 0 1.1 0.1 0.8 0 1 0 0.3 0 1 0 0.8-0.1 1-0.1 0.1 0 0.6-0.7 0.7-0.6 0.9-0.9 0.5-0.5 1.5-1.7 0.9-1.3 1-1.6 0.1-0.1 0.4-1 0.2-0.9 0.4-1.3 0.1-0.4 0.2-1.2 0.3-0.7 0.5-1.7 0.3-0.9 0.6-1.7 0.2-0.7 0.2-1.1h18.5v26.5h-76.2v-64.2q0-0.2 0.7-0.4 0.6-0.3 0.9-0.4 0.5-0.1 1.8-0.3 1.4-0.1 3-0.2 1.5-0.1 2.8-0.1 1.5-0.2 2-0.2zm72.8-36.1h32.1v21.7q0 0.1-0.6 0.4-0.7 0.2-0.9 0.4-0.3 0-1.3 0.1-0.9 0.1-2 0.3-1 0.1-2.1 0.2-0.9 0.2-1.1 0.2-0.3 0.1-1.5 0.7-1.1 0.5-1.8 0.8-0.1 0.1-0.4 0.4-0.2 0.3-0.4 0.5v0.4 0.4q0.5 0 1.9 0.1 1.4 0 2.9 0.2 1.6 0.1 2.9 0.2 1.4 0.2 1.9 0.3 0.3 0 0.8 0.2 0.7 0.3 0.9 0.6 0.2 0.1 0.3 0.2 0.1 0 0.3 0.2 0.1 0.1 0.2 0.3v73.1h-8.8q-0.2 0-0.8-0.3-0.5-0.2-0.8-0.5-0.1-0.1-0.4-0.4-0.2-0.2-0.5-0.4-0.1-0.1-0.8-0.9-0.5-0.7-1.1-1.5-0.7-0.8-1.3-1.5-0.6-0.7-0.7-0.9-0.3-0.2-0.5-0.5-0.3-0.4-0.4-0.4l-0.5 0.3q0 0.2-0.1 0.8-0.2 0.4-0.2 0.6 0.2 0.5 0.4 1.7 0.3 1.2 0.4 1.4l0.9 0.9v0.4 0.4q-0.3 0.3-0.9 0.5-0.5 0.3-0.8 0.3h-15.2zm43 75h47.3v-10.4h-47.3v-32.5q0-0.1 0.3-0.4 0.2-0.4 0.5-0.4 0.2-0.1 1.4-0.4 1.2-0.2 1.8-0.3 0.6-0.3 2.4-0.6 1.8-0.2 2.5-0.4 0.2 0 1.2 0 1.1-0.1 2.3-0.2 1.3-0.1 2.3-0.3 1-0.1 1.3-0.2 0.3 0 0.9-0.3 0.7-0.4 0.8-0.5 0.4-0.1 1.9-0.4 1.6-0.3 2.1-0.4v-0.8q0 0-0.5-0.1-0.5-0.1-1.3-0.3-0.8-0.1-1.7-0.2-0.8-0.2-1.3-0.2-0.8 0-2.7 0-2-0.1-4.2-0.1-2.1 0-4 0.1-2 0-2.7 0-0.3-0.1-0.9-0.3-0.6-0.3-0.8-0.6-0.2 0-0.4-0.2-0.3-0.4-0.4-0.5-0.3-0.3-0.5-0.8-0.3-0.7-0.3-0.8v-22.5h80.2v26.9h-47.3v10.4h21.7q0 0.3 0.3 1.1 0.4 0.7 0.5 1 0.1 0 0.4 0.4 0.4 0.2 0.4 0.4 0.1 0.4 0.4 1.3 0.2 0.9 0.5 1.9 0.2 0.9 0.4 1.8 0.2 1 0.2 1.3 0.2-0.3 0.4-1.3 0.4-0.9 0.8-1.9 0.4-1 0.7-2 0.3-0.9 0.6-1.1 0.3-0.7 1.2-1.6 0.9-0.9 1.1-0.9h17.7v64.2h-16.8q-0.1 0-0.3-0.2-0.3-0.3-0.6-0.6-0.1-0.2-0.4-0.7-0.2-0.7-0.3-0.9 0-0.2-0.4-2-0.3-1.8-0.4-2.9 0-0.2-0.1-1-0.2-0.8-0.3-1.7-0.1-0.9-0.3-1.7-0.1-0.8-0.1-1.1-0.1 0.1-0.5 0.3-0.3 0.3-0.3 0.4-0.1 0.3-0.5 1.6-0.3 1.3-0.3 1.7-0.1 0.5-0.2 1.8-0.1 1.2-0.3 2.6-0.1 1.4-0.2 2.7-0.2 1.2-0.2 1.7h-31.2q-0.1 0-1-0.6-0.9-0.7-1.4-0.9 0-0.2-0.4-0.4-0.3-0.3-0.4-0.5-0.4-0.6-1.3-1.7-0.9-1.2-1.2-1.5-0.3-0.4-0.6-1.1-0.3-0.8-0.7-1.6-0.4-0.8-0.8-1.3-0.2-0.6-0.2-0.8-0.2-0.6-0.3-2.2-0.1-1.7-0.2-3.4-0.2-1.8-0.3-3.3 0-1.7 0-2.4-0.1 0.5-0.4 2-0.3 1.3-0.5 2.8-0.3 1.6-0.5 3-0.2 1.3-0.3 1.8v9.7l-2.3 2.4h-13.7zm116.3-31.7q0.1 0 0.1-0.4v-0.1q0-0.1-0.1-0.3-0.1 0-1-0.2-0.9-0.4-1.3-0.6-0.5-0.1-2-0.3-1.3-0.4-1.7-0.4v-14.1h-22.1v-26.9h77.9v26.5h-8.1q-0.1 0-0.5-0.9-0.2-0.9-0.2-1.5 0-0.2 0-0.7 0-0.6 0-1.3 0-0.8 0-1.3 0-0.6 0-0.8l-0.4-0.4q-0.4-0.1-0.4-0.3-0.2-0.2-0.4-0.8-0.3-0.7-0.4-0.8-0.3-0.1-0.9-0.4-0.7-0.3-0.8-0.4-0.1-0.2-0.4-0.8-0.2-0.6-0.4-0.9-0.1 0-0.5-0.2-0.3-0.4-0.3-0.6-0.1-0.2-0.7-1.1-0.7-1.1-0.9-1.2-0.3-0.4-0.7-0.9-0.4-0.5-0.8-1-0.5-0.6-0.9-1.3h-0.8q0 0.3 0.3 1.6 0.4 1.2 0.5 1.6 0.2 0 0.4 0.4 0.4 0.3 0.4 0.4 0.1 0.1 0.4 0.8 0.4 0.6 0.4 0.7l0.8 0.8q0.1 0.3 0 1.3 0 0.9 0 1.2 0.2 0.3 1.1 1.3 1.1 0.9 1.3 1 0.3 0.3 0.6 0.9 0.2 0.6 0.2 0.8 0.1 0.7 0.3 2.6 0.1 2 0.1 2.6h-10.4v75h-6.8q-0.1-0.6-0.4-2.3-0.2-1.8-0.5-2.5 0-0.2-0.4-1.4-0.2-1.3-0.3-1.8-0.2-0.5-0.4-1.5-0.3-0.9-0.4-0.9l-0.3-0.1q-0.1 0-0.2 0.1 0 0-0.2 0h-0.1q-0.1 0-0.5 0.4-0.3 0.3-0.3 0.4 0 0.4-0.1 1.3-0.2 0.9-0.3 2-0.1 0.9-0.2 1.8-0.2 0.9-0.2 1.3 0 0.2-0.4 0.9-0.2 0.5-0.5 0.8 0 0.1-0.4 0.4-0.2 0.2-0.4 0.4-0.2 0.2-0.9 0.5-0.5 0.2-0.6 0.2h-18.5v-56.1q0-0.3 0.5-0.8 0.7-0.7 1.1-0.8 0.5-0.2 1.9-0.5 1.6-0.4 2.1-0.4z"/></svg>